#!OML:ASF F:\VICON\USERDATA\INSTALL\rory3\rory3.ASF
:FULLY-SPECIFIED
:DEGREES
1941
root -1.89826 19.8936 0.704706 -545.793 -127.653 547.344
lowerback 6.24406 1.56302 -4.8151
upperback -5.27578 0.606008 -9.17242
thorax -9.16218 0.138831 -7.281
lowerneck -12.5534 -11.9343 -15.6072
upperneck -11.538 -13.6705 14.7361
head 0.677235 -6.40935 6.19414
rclavicle -8.38871e-014 6.99722e-014
rhumerus 82.745 -41.5843 -40.1067
rradius 24.5441
rwrist 10.9955
rhand -19.4684 -9.16135
rfingers 7.12502
rthumb 6.85301 -39.0304
lclavicle -8.38871e-014 6.99722e-014
lhumerus 15.5332 12.2891 1.69252
lradius 95.1044
lwrist 16.5864
lhand -23.2096 16.8043
lfingers 7.12502
lthumb 3.2407 46.7594
rfemur 11.4025 -11.3765 22.1502
rtibia -1.27222e-014
rfoot 6.85722 -36.9651
rtoes 25.7348
lfemur -36.4422 -1.73911 -7.90218
ltibia 36.1418
lfoot 21.9387 -14.779
ltoes 1.77464
1942
root -1.91085 19.9048 0.714267 -545.531 -127.937 547.114
lowerback 6.28568 1.60463 -4.58108
upperback -5.25865 0.704168 -9.04939
thorax -9.15256 0.181333 -7.29106
lowerneck -12.3447 -11.9414 -15.7172
upperneck -11.8013 -13.6781 14.9446
head 0.597991 -6.41733 6.29254
rclavicle 4.53229e-014 6.99722e-014
rhumerus 82.1401 -41.4019 -39.6726
rradius 24.6534
rwrist 10.4578
rhand -18.9911 -8.66366
rfingers 7.12502
rthumb 7.31374 -38.5173
lclavicle 4.53229e-014 6.99722e-014
lhumerus 15.3113 12.1506 1.37765
lradius 95.0708
lwrist 16.3494
lhand -23.5212 16.7884
lfingers 7.12502
lthumb 2.93977 46.7479
rfemur 11.3771 -11.6841 22.2399
rtibia 2.38542e-014
rfoot 7.0396 -36.8989
rtoes 26.0312
lfemur -37.2011 -1.6335 -8.10944
ltibia 35.8561
lfoot 20.315 -15.1219
ltoes 1.35861
1943
root -1.92621 19.9162 0.725422 -545.42 -128.237 547.006
lowerback 6.2729 1.67092 -4.42008
upperback -5.1443 0.83867 -8.97391
thorax -9.00104 0.246508 -7.3074
lowerneck -12.3526 -12.0042 -15.6561
upperneck -11.9452 -13.7596 14.9067
head 0.559736 -6.45906 6.26838
rclavicle -1.37957e-013 -1.59028e-014
rhumerus 82.3874 -41.2178 -40.2504
rradius 24.4897
rwrist 10.6557
rhand -18.3331 -8.21168
rfingers 7.12502
rthumb 7.94884 -38.0422
lclavicle -1.37957e-013 -1.59028e-014
lhumerus 15.4221 12.1578 1.2939
lradius 94.8833
lwrist 16.0027
lhand -23.6965 16.8764
lfingers 7.12502
lthumb 2.77049 46.8382
rfemur 11.4147 -12.0002 22.2266
rtibia -9.54166e-015
rfoot 7.1368 -36.8344
rtoes 26.0797
lfemur -37.9093 -1.26058 -8.53985
ltibia 35.5669
lfoot 18.8802 -15.9257
ltoes -0.0673152
1944
root -1.93981 19.9289 0.734488 -545.45 -128.507 547.106
lowerback 6.30749 1.75271 -4.42922
upperback -5.0875 0.959061 -8.92567
thorax -8.94716 0.311323 -7.26225
lowerneck -12.3404 -12.0471 -15.4484
upperneck -12.0604 -13.8378 14.8008
head 0.510884 -6.50486 6.20239
rclavicle -3.61788e-014 -6.36111e-015
rhumerus 82.5497 -40.9799 -40.7164
rradius 24.2748
rwrist 10.7345
rhand -17.3421 -8.33876
rfingers 7.12502
rthumb 8.90521 -38.1308
lclavicle -3.61788e-014 -6.36111e-015
lhumerus 15.5452 12.3651 1.31634
lradius 94.8399
lwrist 15.7858
lhand -23.8571 17.2676
lfingers 7.12502
lthumb 2.61535 47.2313
rfemur 11.4127 -12.2736 22.0945
rtibia 3.18055e-015
rfoot 7.15072 -36.9053
rtoes 26.4946
lfemur -38.6238 -1.00632 -9.06996
ltibia 35.2829
lfoot 17.579 -16.5182
ltoes -0.831553
1945
root -1.95264 19.9412 0.746422 -545.422 -128.651 547.226
lowerback 6.31749 1.86346 -4.52341
upperback -5.13165 1.10937 -8.79114
thorax -8.99034 0.398223 -7.08239
lowerneck -12.3613 -12.0856 -15.4264
upperneck -11.8551 -13.8961 14.6867
head 0.569652 -6.53075 6.14923
rclavicle 1.68172e-013 6.36111e-015
rhumerus 82.6798 -40.6191 -41.1842
rradius 24.2535
rwrist 11.007
rhand -16.4413 -8.18721
rfingers 7.12502
rthumb 9.77437 -37.9404
lclavicle 1.68172e-013 6.36111e-015
lhumerus 15.3606 12.492 1.15709
lradius 94.9026
lwrist 15.8652
lhand -24.2347 17.0159
lfingers 7.12502
lthumb 2.25073 46.9837
rfemur 11.3419 -12.4163 21.9678
rtibia -2.54444e-014
rfoot 6.82242 -37.07
rtoes 27.4466
lfemur -39.3376 -1.1835 -9.40006
ltibia 35.0088
lfoot 16.3245 -16.4947
ltoes -0.808337
1946
root -1.96213 19.952 0.763995 -545.49 -128.775 547.308
lowerback 6.36974 1.9854 -4.43533
upperback -5.0893 1.29328 -8.72477
thorax -8.95541 0.48864 -7.08364
lowerneck -12.2984 -12.1365 -15.3089
upperneck -11.7934 -13.9889 14.5708
head 0.572166 -6.58104 6.08764
rclavicle -3.89618e-014 5.08889e-014
rhumerus 82.175 -40.3676 -40.8263
rradius 24.2929
rwrist 10.8341
rhand -15.9844 -7.95077
rfingers 7.12502
rthumb 10.2152 -37.6827
lclavicle -3.89618e-014 5.08889e-014
lhumerus 15.3078 12.6791 0.797397
lradius 94.8584
lwrist 16.0369
lhand -23.8152 15.7905
lfingers 7.12502
lthumb 2.65585 45.7537
rfemur 11.3784 -12.5459 21.8318
rtibia 1.59028e-015
rfoot 6.98003 -37.1506
rtoes 27.3471
lfemur -39.8798 -1.39081 -9.73025
ltibia 34.7381
lfoot 15.1131 -16.4972
ltoes -1.08501
